<mxfile host="app.diagrams.net" modified="2024-02-12T12:33:05.149Z" agent="Mozilla/5.0 (Windows NT 10.0; Win64; x64) AppleWebKit/537.36 (KHTML, like Gecko) Chrome/121.0.0.0 Safari/537.36 Edg/121.0.0.0" etag="yK63nNt8auaPKH2sob0y" version="23.1.2" type="github">
  <diagram name="Page-1" id="822b0af5-4adb-64df-f703-e8dfc1f81529">
    <mxGraphModel dx="2578" dy="2291" grid="1" gridSize="10" guides="1" tooltips="1" connect="1" arrows="1" fold="1" page="1" pageScale="1" pageWidth="1100" pageHeight="850" background="none" math="0" shadow="0">
      <root>
        <mxCell id="0" />
        <mxCell id="1" parent="0" />
        <mxCell id="7d933b09d9755ecc-15" value="曾祖" style="ellipse;whiteSpace=wrap;html=1;rounded=0;shadow=0;comic=0;strokeWidth=1;fontFamily=Verdana;" parent="1" vertex="1">
          <mxGeometry x="460" y="320" width="101" height="70" as="geometry" />
        </mxCell>
        <mxCell id="mrYq8TOZVtPHyVSn8t1D-1" value="我爷爷" style="ellipse;whiteSpace=wrap;html=1;rounded=0;shadow=0;comic=0;strokeWidth=1;fontFamily=Verdana;" parent="1" vertex="1">
          <mxGeometry x="640" y="140" width="101" height="70" as="geometry" />
        </mxCell>
        <mxCell id="mrYq8TOZVtPHyVSn8t1D-4" value="二爷爷" style="ellipse;whiteSpace=wrap;html=1;rounded=0;shadow=0;comic=0;strokeWidth=1;fontFamily=Verdana;" parent="1" vertex="1">
          <mxGeometry x="610" y="620" width="101" height="70" as="geometry" />
        </mxCell>
        <mxCell id="mrYq8TOZVtPHyVSn8t1D-5" value="三爷爷" style="ellipse;whiteSpace=wrap;html=1;rounded=0;shadow=0;comic=0;strokeWidth=1;fontFamily=Verdana;" parent="1" vertex="1">
          <mxGeometry x="370" y="650" width="101" height="70" as="geometry" />
        </mxCell>
        <mxCell id="mrYq8TOZVtPHyVSn8t1D-6" value="" style="endArrow=classic;html=1;rounded=0;exitX=1;exitY=0.5;exitDx=0;exitDy=0;entryX=0;entryY=0.5;entryDx=0;entryDy=0;" parent="1" source="7d933b09d9755ecc-15" target="mrYq8TOZVtPHyVSn8t1D-5" edge="1">
          <mxGeometry width="50" height="50" relative="1" as="geometry">
            <mxPoint x="485.5" y="600" as="sourcePoint" />
            <mxPoint x="535.5" y="550" as="targetPoint" />
          </mxGeometry>
        </mxCell>
        <mxCell id="mrYq8TOZVtPHyVSn8t1D-7" value="" style="endArrow=classic;html=1;rounded=0;exitX=1;exitY=0.5;exitDx=0;exitDy=0;entryX=0;entryY=0.5;entryDx=0;entryDy=0;" parent="1" source="7d933b09d9755ecc-15" target="mrYq8TOZVtPHyVSn8t1D-4" edge="1">
          <mxGeometry width="50" height="50" relative="1" as="geometry">
            <mxPoint x="490" y="530" as="sourcePoint" />
            <mxPoint x="540" y="480" as="targetPoint" />
          </mxGeometry>
        </mxCell>
        <mxCell id="mrYq8TOZVtPHyVSn8t1D-8" value="樊月辰" style="ellipse;whiteSpace=wrap;html=1;rounded=0;shadow=0;comic=0;strokeWidth=1;fontFamily=Verdana;" parent="1" vertex="1">
          <mxGeometry x="760" y="-250" width="101" height="70" as="geometry" />
        </mxCell>
        <mxCell id="mrYq8TOZVtPHyVSn8t1D-12" value="樊月安" style="ellipse;whiteSpace=wrap;html=1;rounded=0;shadow=0;comic=0;strokeWidth=1;fontFamily=Verdana;" parent="1" vertex="1">
          <mxGeometry x="840" y="180" width="101" height="70" as="geometry" />
        </mxCell>
        <mxCell id="mrYq8TOZVtPHyVSn8t1D-13" value="樊月周" style="ellipse;whiteSpace=wrap;html=1;rounded=0;shadow=0;comic=0;strokeWidth=1;fontFamily=Verdana;" parent="1" vertex="1">
          <mxGeometry x="840" y="300" width="101" height="70" as="geometry" />
        </mxCell>
        <mxCell id="mrYq8TOZVtPHyVSn8t1D-14" value="樊月华" style="ellipse;whiteSpace=wrap;html=1;rounded=0;shadow=0;comic=0;strokeWidth=1;fontFamily=Verdana;" parent="1" vertex="1">
          <mxGeometry x="840" y="425" width="101" height="70" as="geometry" />
        </mxCell>
        <mxCell id="mrYq8TOZVtPHyVSn8t1D-15" value="樊月广" style="ellipse;whiteSpace=wrap;html=1;rounded=0;shadow=0;comic=0;strokeWidth=1;fontFamily=Verdana;" parent="1" vertex="1">
          <mxGeometry x="840" y="540" width="101" height="70" as="geometry" />
        </mxCell>
        <mxCell id="mrYq8TOZVtPHyVSn8t1D-16" value="大姑姑" style="ellipse;whiteSpace=wrap;html=1;rounded=0;shadow=0;comic=0;strokeWidth=1;fontFamily=Verdana;" parent="1" vertex="1">
          <mxGeometry x="840" y="650" width="101" height="70" as="geometry" />
        </mxCell>
        <mxCell id="mrYq8TOZVtPHyVSn8t1D-17" value="樊月环" style="ellipse;whiteSpace=wrap;html=1;rounded=0;shadow=0;comic=0;strokeWidth=1;fontFamily=Verdana;" parent="1" vertex="1">
          <mxGeometry x="840" y="760" width="101" height="70" as="geometry" />
        </mxCell>
        <mxCell id="mrYq8TOZVtPHyVSn8t1D-18" value="樊月改" style="ellipse;whiteSpace=wrap;html=1;rounded=0;shadow=0;comic=0;strokeWidth=1;fontFamily=Verdana;" parent="1" vertex="1">
          <mxGeometry x="840" y="870" width="101" height="70" as="geometry" />
        </mxCell>
        <mxCell id="mrYq8TOZVtPHyVSn8t1D-20" value="" style="endArrow=classic;html=1;rounded=0;exitX=1;exitY=0.5;exitDx=0;exitDy=0;entryX=0;entryY=0.5;entryDx=0;entryDy=0;" parent="1" source="mrYq8TOZVtPHyVSn8t1D-1" target="mrYq8TOZVtPHyVSn8t1D-12" edge="1">
          <mxGeometry width="50" height="50" relative="1" as="geometry">
            <mxPoint x="1280" y="760" as="sourcePoint" />
            <mxPoint x="1330" y="710" as="targetPoint" />
          </mxGeometry>
        </mxCell>
        <mxCell id="mrYq8TOZVtPHyVSn8t1D-21" value="" style="endArrow=classic;html=1;rounded=0;exitX=1;exitY=0.5;exitDx=0;exitDy=0;entryX=0;entryY=0.5;entryDx=0;entryDy=0;" parent="1" source="mrYq8TOZVtPHyVSn8t1D-1" target="mrYq8TOZVtPHyVSn8t1D-13" edge="1">
          <mxGeometry width="50" height="50" relative="1" as="geometry">
            <mxPoint x="1280" y="760" as="sourcePoint" />
            <mxPoint x="1330" y="710" as="targetPoint" />
          </mxGeometry>
        </mxCell>
        <mxCell id="mrYq8TOZVtPHyVSn8t1D-22" value="" style="endArrow=classic;html=1;rounded=0;exitX=1;exitY=0.5;exitDx=0;exitDy=0;entryX=0;entryY=0.5;entryDx=0;entryDy=0;" parent="1" source="mrYq8TOZVtPHyVSn8t1D-1" target="mrYq8TOZVtPHyVSn8t1D-14" edge="1">
          <mxGeometry width="50" height="50" relative="1" as="geometry">
            <mxPoint x="1280" y="760" as="sourcePoint" />
            <mxPoint x="1330" y="710" as="targetPoint" />
          </mxGeometry>
        </mxCell>
        <mxCell id="mrYq8TOZVtPHyVSn8t1D-23" value="" style="endArrow=classic;html=1;rounded=0;exitX=1;exitY=0.5;exitDx=0;exitDy=0;entryX=0;entryY=0.5;entryDx=0;entryDy=0;" parent="1" source="mrYq8TOZVtPHyVSn8t1D-1" target="mrYq8TOZVtPHyVSn8t1D-15" edge="1">
          <mxGeometry width="50" height="50" relative="1" as="geometry">
            <mxPoint x="1280" y="760" as="sourcePoint" />
            <mxPoint x="1330" y="710" as="targetPoint" />
          </mxGeometry>
        </mxCell>
        <mxCell id="mrYq8TOZVtPHyVSn8t1D-24" value="" style="endArrow=classic;html=1;rounded=0;exitX=1;exitY=0.5;exitDx=0;exitDy=0;entryX=0;entryY=0.5;entryDx=0;entryDy=0;" parent="1" source="mrYq8TOZVtPHyVSn8t1D-1" target="mrYq8TOZVtPHyVSn8t1D-16" edge="1">
          <mxGeometry width="50" height="50" relative="1" as="geometry">
            <mxPoint x="1280" y="760" as="sourcePoint" />
            <mxPoint x="1330" y="710" as="targetPoint" />
          </mxGeometry>
        </mxCell>
        <mxCell id="mrYq8TOZVtPHyVSn8t1D-25" value="" style="endArrow=classic;html=1;rounded=0;exitX=1;exitY=0.5;exitDx=0;exitDy=0;entryX=0;entryY=0.5;entryDx=0;entryDy=0;" parent="1" source="mrYq8TOZVtPHyVSn8t1D-1" target="mrYq8TOZVtPHyVSn8t1D-17" edge="1">
          <mxGeometry width="50" height="50" relative="1" as="geometry">
            <mxPoint x="1280" y="760" as="sourcePoint" />
            <mxPoint x="1330" y="710" as="targetPoint" />
          </mxGeometry>
        </mxCell>
        <mxCell id="mrYq8TOZVtPHyVSn8t1D-26" value="" style="endArrow=classic;html=1;rounded=0;exitX=1;exitY=0.5;exitDx=0;exitDy=0;entryX=0;entryY=0.5;entryDx=0;entryDy=0;" parent="1" source="mrYq8TOZVtPHyVSn8t1D-1" target="mrYq8TOZVtPHyVSn8t1D-18" edge="1">
          <mxGeometry width="50" height="50" relative="1" as="geometry">
            <mxPoint x="1280" y="760" as="sourcePoint" />
            <mxPoint x="1330" y="710" as="targetPoint" />
          </mxGeometry>
        </mxCell>
        <mxCell id="mrYq8TOZVtPHyVSn8t1D-27" value="樊大彩" style="ellipse;whiteSpace=wrap;html=1;rounded=0;shadow=0;comic=0;strokeWidth=1;fontFamily=Verdana;" parent="1" vertex="1">
          <mxGeometry x="1060" y="-560" width="101" height="70" as="geometry" />
        </mxCell>
        <mxCell id="mrYq8TOZVtPHyVSn8t1D-29" value="樊二彩" style="ellipse;whiteSpace=wrap;html=1;rounded=0;shadow=0;comic=0;strokeWidth=1;fontFamily=Verdana;" parent="1" vertex="1">
          <mxGeometry x="1060" y="-450" width="101" height="70" as="geometry" />
        </mxCell>
        <mxCell id="mrYq8TOZVtPHyVSn8t1D-30" value="樊运山" style="ellipse;whiteSpace=wrap;html=1;rounded=0;shadow=0;comic=0;strokeWidth=1;fontFamily=Verdana;" parent="1" vertex="1">
          <mxGeometry x="1060" y="-350" width="101" height="70" as="geometry" />
        </mxCell>
        <mxCell id="mrYq8TOZVtPHyVSn8t1D-31" value="樊运波" style="ellipse;whiteSpace=wrap;html=1;rounded=0;shadow=0;comic=0;strokeWidth=1;fontFamily=Verdana;" parent="1" vertex="1">
          <mxGeometry x="1060" y="-250" width="101" height="70" as="geometry" />
        </mxCell>
        <mxCell id="mrYq8TOZVtPHyVSn8t1D-32" value="樊运海" style="ellipse;whiteSpace=wrap;html=1;rounded=0;shadow=0;comic=0;strokeWidth=1;fontFamily=Verdana;" parent="1" vertex="1">
          <mxGeometry x="1060" y="-150" width="101" height="70" as="geometry" />
        </mxCell>
        <mxCell id="mrYq8TOZVtPHyVSn8t1D-33" value="樊海波" style="ellipse;whiteSpace=wrap;html=1;rounded=0;shadow=0;comic=0;strokeWidth=1;fontFamily=Verdana;" parent="1" vertex="1">
          <mxGeometry x="1060" y="-50" width="101" height="70" as="geometry" />
        </mxCell>
        <mxCell id="mrYq8TOZVtPHyVSn8t1D-34" value="樊海亮" style="ellipse;whiteSpace=wrap;html=1;rounded=0;shadow=0;comic=0;strokeWidth=1;fontFamily=Verdana;" parent="1" vertex="1">
          <mxGeometry x="1060" y="50" width="101" height="70" as="geometry" />
        </mxCell>
        <mxCell id="mrYq8TOZVtPHyVSn8t1D-35" value="" style="endArrow=classic;html=1;rounded=0;exitX=1;exitY=0.5;exitDx=0;exitDy=0;entryX=0;entryY=0.5;entryDx=0;entryDy=0;" parent="1" source="mrYq8TOZVtPHyVSn8t1D-8" target="mrYq8TOZVtPHyVSn8t1D-29" edge="1">
          <mxGeometry width="50" height="50" relative="1" as="geometry">
            <mxPoint x="1290" y="250" as="sourcePoint" />
            <mxPoint x="1340" y="200" as="targetPoint" />
          </mxGeometry>
        </mxCell>
        <mxCell id="mrYq8TOZVtPHyVSn8t1D-36" value="" style="endArrow=classic;html=1;rounded=0;exitX=1;exitY=0.5;exitDx=0;exitDy=0;entryX=0;entryY=0.5;entryDx=0;entryDy=0;" parent="1" source="mrYq8TOZVtPHyVSn8t1D-8" target="mrYq8TOZVtPHyVSn8t1D-30" edge="1">
          <mxGeometry width="50" height="50" relative="1" as="geometry">
            <mxPoint x="1290" y="250" as="sourcePoint" />
            <mxPoint x="1340" y="200" as="targetPoint" />
          </mxGeometry>
        </mxCell>
        <mxCell id="mrYq8TOZVtPHyVSn8t1D-37" value="" style="endArrow=classic;html=1;rounded=0;entryX=0;entryY=0.5;entryDx=0;entryDy=0;exitX=1;exitY=0.5;exitDx=0;exitDy=0;" parent="1" source="mrYq8TOZVtPHyVSn8t1D-8" target="mrYq8TOZVtPHyVSn8t1D-27" edge="1">
          <mxGeometry width="50" height="50" relative="1" as="geometry">
            <mxPoint x="950" y="-140" as="sourcePoint" />
            <mxPoint x="1340" y="200" as="targetPoint" />
          </mxGeometry>
        </mxCell>
        <mxCell id="mrYq8TOZVtPHyVSn8t1D-38" value="" style="endArrow=classic;html=1;rounded=0;exitX=1;exitY=0.5;exitDx=0;exitDy=0;entryX=0;entryY=0.5;entryDx=0;entryDy=0;" parent="1" source="mrYq8TOZVtPHyVSn8t1D-8" target="mrYq8TOZVtPHyVSn8t1D-31" edge="1">
          <mxGeometry width="50" height="50" relative="1" as="geometry">
            <mxPoint x="1290" y="250" as="sourcePoint" />
            <mxPoint x="1340" y="200" as="targetPoint" />
          </mxGeometry>
        </mxCell>
        <mxCell id="mrYq8TOZVtPHyVSn8t1D-39" value="" style="endArrow=classic;html=1;rounded=0;exitX=1;exitY=0.5;exitDx=0;exitDy=0;entryX=0;entryY=0.5;entryDx=0;entryDy=0;" parent="1" source="mrYq8TOZVtPHyVSn8t1D-8" target="mrYq8TOZVtPHyVSn8t1D-32" edge="1">
          <mxGeometry width="50" height="50" relative="1" as="geometry">
            <mxPoint x="1290" y="250" as="sourcePoint" />
            <mxPoint x="1340" y="200" as="targetPoint" />
          </mxGeometry>
        </mxCell>
        <mxCell id="mrYq8TOZVtPHyVSn8t1D-40" value="" style="endArrow=classic;html=1;rounded=0;exitX=1;exitY=0.5;exitDx=0;exitDy=0;entryX=0;entryY=0.5;entryDx=0;entryDy=0;" parent="1" source="mrYq8TOZVtPHyVSn8t1D-8" target="mrYq8TOZVtPHyVSn8t1D-33" edge="1">
          <mxGeometry width="50" height="50" relative="1" as="geometry">
            <mxPoint x="1290" y="250" as="sourcePoint" />
            <mxPoint x="1340" y="200" as="targetPoint" />
          </mxGeometry>
        </mxCell>
        <mxCell id="mrYq8TOZVtPHyVSn8t1D-41" value="" style="endArrow=classic;html=1;rounded=0;exitX=1;exitY=0.5;exitDx=0;exitDy=0;entryX=0;entryY=0.5;entryDx=0;entryDy=0;" parent="1" source="mrYq8TOZVtPHyVSn8t1D-8" target="mrYq8TOZVtPHyVSn8t1D-34" edge="1">
          <mxGeometry width="50" height="50" relative="1" as="geometry">
            <mxPoint x="1290" y="250" as="sourcePoint" />
            <mxPoint x="1340" y="200" as="targetPoint" />
          </mxGeometry>
        </mxCell>
        <mxCell id="mrYq8TOZVtPHyVSn8t1D-42" value="小峰" style="ellipse;whiteSpace=wrap;html=1;rounded=0;shadow=0;comic=0;strokeWidth=1;fontFamily=Verdana;" parent="1" vertex="1">
          <mxGeometry x="1230" y="-620" width="60" height="50" as="geometry" />
        </mxCell>
        <mxCell id="mrYq8TOZVtPHyVSn8t1D-44" value="女儿" style="ellipse;whiteSpace=wrap;html=1;rounded=0;shadow=0;comic=0;strokeWidth=1;fontFamily=Verdana;" parent="1" vertex="1">
          <mxGeometry x="1230" y="-540" width="60" height="40" as="geometry" />
        </mxCell>
        <mxCell id="mrYq8TOZVtPHyVSn8t1D-45" value="" style="endArrow=classic;html=1;rounded=0;exitX=1;exitY=0.5;exitDx=0;exitDy=0;entryX=0;entryY=0.5;entryDx=0;entryDy=0;" parent="1" source="mrYq8TOZVtPHyVSn8t1D-27" target="mrYq8TOZVtPHyVSn8t1D-44" edge="1">
          <mxGeometry width="50" height="50" relative="1" as="geometry">
            <mxPoint x="1240" y="120" as="sourcePoint" />
            <mxPoint x="1290" y="70" as="targetPoint" />
          </mxGeometry>
        </mxCell>
        <mxCell id="mrYq8TOZVtPHyVSn8t1D-48" value="" style="endArrow=classic;html=1;rounded=0;exitX=1;exitY=0.5;exitDx=0;exitDy=0;entryX=0;entryY=0.5;entryDx=0;entryDy=0;" parent="1" source="mrYq8TOZVtPHyVSn8t1D-27" target="mrYq8TOZVtPHyVSn8t1D-42" edge="1">
          <mxGeometry width="50" height="50" relative="1" as="geometry">
            <mxPoint x="1240" y="120" as="sourcePoint" />
            <mxPoint x="1290" y="70" as="targetPoint" />
          </mxGeometry>
        </mxCell>
        <mxCell id="mrYq8TOZVtPHyVSn8t1D-49" value="" style="endArrow=classic;html=1;rounded=0;exitX=1;exitY=0.5;exitDx=0;exitDy=0;entryX=0;entryY=0.5;entryDx=0;entryDy=0;" parent="1" source="mrYq8TOZVtPHyVSn8t1D-29" target="mrYq8TOZVtPHyVSn8t1D-51" edge="1">
          <mxGeometry width="50" height="50" relative="1" as="geometry">
            <mxPoint x="1240" y="120" as="sourcePoint" />
            <mxPoint x="1290" y="70" as="targetPoint" />
          </mxGeometry>
        </mxCell>
        <mxCell id="mrYq8TOZVtPHyVSn8t1D-51" value="高祥" style="ellipse;whiteSpace=wrap;html=1;rounded=0;shadow=0;comic=0;strokeWidth=1;fontFamily=Verdana;" parent="1" vertex="1">
          <mxGeometry x="1230" y="-480" width="60" height="40" as="geometry" />
        </mxCell>
        <mxCell id="mrYq8TOZVtPHyVSn8t1D-52" value="女儿" style="ellipse;whiteSpace=wrap;html=1;rounded=0;shadow=0;comic=0;strokeWidth=1;fontFamily=Verdana;" parent="1" vertex="1">
          <mxGeometry x="1230" y="-435" width="60" height="40" as="geometry" />
        </mxCell>
        <mxCell id="mrYq8TOZVtPHyVSn8t1D-53" value="二小" style="ellipse;whiteSpace=wrap;html=1;rounded=0;shadow=0;comic=0;strokeWidth=1;fontFamily=Verdana;" parent="1" vertex="1">
          <mxGeometry x="1230" y="-390" width="60" height="40" as="geometry" />
        </mxCell>
        <mxCell id="mrYq8TOZVtPHyVSn8t1D-54" value="" style="endArrow=classic;html=1;rounded=0;exitX=1;exitY=0.5;exitDx=0;exitDy=0;entryX=0;entryY=0.5;entryDx=0;entryDy=0;" parent="1" source="mrYq8TOZVtPHyVSn8t1D-29" target="mrYq8TOZVtPHyVSn8t1D-52" edge="1">
          <mxGeometry width="50" height="50" relative="1" as="geometry">
            <mxPoint x="1240" y="120" as="sourcePoint" />
            <mxPoint x="1290" y="70" as="targetPoint" />
          </mxGeometry>
        </mxCell>
        <mxCell id="mrYq8TOZVtPHyVSn8t1D-55" value="" style="endArrow=classic;html=1;rounded=0;exitX=1;exitY=0.5;exitDx=0;exitDy=0;entryX=0;entryY=0.5;entryDx=0;entryDy=0;" parent="1" source="mrYq8TOZVtPHyVSn8t1D-29" target="mrYq8TOZVtPHyVSn8t1D-53" edge="1">
          <mxGeometry width="50" height="50" relative="1" as="geometry">
            <mxPoint x="1240" y="120" as="sourcePoint" />
            <mxPoint x="1290" y="70" as="targetPoint" />
          </mxGeometry>
        </mxCell>
        <mxCell id="mrYq8TOZVtPHyVSn8t1D-56" value="小香" style="ellipse;whiteSpace=wrap;html=1;rounded=0;shadow=0;comic=0;strokeWidth=1;fontFamily=Verdana;" parent="1" vertex="1">
          <mxGeometry x="1230" y="-340" width="60" height="40" as="geometry" />
        </mxCell>
        <mxCell id="mrYq8TOZVtPHyVSn8t1D-57" value="二虎" style="ellipse;whiteSpace=wrap;html=1;rounded=0;shadow=0;comic=0;strokeWidth=1;fontFamily=Verdana;" parent="1" vertex="1">
          <mxGeometry x="1230" y="-290" width="60" height="40" as="geometry" />
        </mxCell>
        <mxCell id="mrYq8TOZVtPHyVSn8t1D-58" value="小虎" style="ellipse;whiteSpace=wrap;html=1;rounded=0;shadow=0;comic=0;strokeWidth=1;fontFamily=Verdana;" parent="1" vertex="1">
          <mxGeometry x="1300" y="-320" width="60" height="40" as="geometry" />
        </mxCell>
        <mxCell id="mrYq8TOZVtPHyVSn8t1D-59" value="" style="endArrow=classic;html=1;rounded=0;exitX=1;exitY=0.5;exitDx=0;exitDy=0;entryX=0;entryY=0.5;entryDx=0;entryDy=0;" parent="1" source="mrYq8TOZVtPHyVSn8t1D-30" target="mrYq8TOZVtPHyVSn8t1D-56" edge="1">
          <mxGeometry width="50" height="50" relative="1" as="geometry">
            <mxPoint x="1240" y="120" as="sourcePoint" />
            <mxPoint x="1290" y="70" as="targetPoint" />
          </mxGeometry>
        </mxCell>
        <mxCell id="mrYq8TOZVtPHyVSn8t1D-60" value="" style="endArrow=classic;html=1;rounded=0;exitX=1;exitY=0.5;exitDx=0;exitDy=0;entryX=0;entryY=0.5;entryDx=0;entryDy=0;" parent="1" source="mrYq8TOZVtPHyVSn8t1D-30" target="mrYq8TOZVtPHyVSn8t1D-58" edge="1">
          <mxGeometry width="50" height="50" relative="1" as="geometry">
            <mxPoint x="1240" y="120" as="sourcePoint" />
            <mxPoint x="1290" y="70" as="targetPoint" />
          </mxGeometry>
        </mxCell>
        <mxCell id="mrYq8TOZVtPHyVSn8t1D-61" value="" style="endArrow=classic;html=1;rounded=0;exitX=1;exitY=0.5;exitDx=0;exitDy=0;entryX=0;entryY=0.5;entryDx=0;entryDy=0;" parent="1" source="mrYq8TOZVtPHyVSn8t1D-30" target="mrYq8TOZVtPHyVSn8t1D-57" edge="1">
          <mxGeometry width="50" height="50" relative="1" as="geometry">
            <mxPoint x="1240" y="120" as="sourcePoint" />
            <mxPoint x="1290" y="70" as="targetPoint" />
          </mxGeometry>
        </mxCell>
        <mxCell id="mrYq8TOZVtPHyVSn8t1D-62" value="小英" style="ellipse;whiteSpace=wrap;html=1;rounded=0;shadow=0;comic=0;strokeWidth=1;fontFamily=Verdana;" parent="1" vertex="1">
          <mxGeometry x="1230" y="-240" width="60" height="40" as="geometry" />
        </mxCell>
        <mxCell id="mrYq8TOZVtPHyVSn8t1D-63" value="小子" style="ellipse;whiteSpace=wrap;html=1;rounded=0;shadow=0;comic=0;strokeWidth=1;fontFamily=Verdana;" parent="1" vertex="1">
          <mxGeometry x="1230" y="-200" width="60" height="40" as="geometry" />
        </mxCell>
        <mxCell id="mrYq8TOZVtPHyVSn8t1D-64" value="" style="endArrow=classic;html=1;rounded=0;exitX=1;exitY=0.5;exitDx=0;exitDy=0;entryX=0;entryY=0.5;entryDx=0;entryDy=0;" parent="1" source="mrYq8TOZVtPHyVSn8t1D-31" target="mrYq8TOZVtPHyVSn8t1D-62" edge="1">
          <mxGeometry width="50" height="50" relative="1" as="geometry">
            <mxPoint x="1240" y="120" as="sourcePoint" />
            <mxPoint x="1290" y="70" as="targetPoint" />
          </mxGeometry>
        </mxCell>
        <mxCell id="mrYq8TOZVtPHyVSn8t1D-65" value="" style="endArrow=classic;html=1;rounded=0;exitX=1;exitY=0.5;exitDx=0;exitDy=0;entryX=0;entryY=0.5;entryDx=0;entryDy=0;" parent="1" source="mrYq8TOZVtPHyVSn8t1D-31" target="mrYq8TOZVtPHyVSn8t1D-63" edge="1">
          <mxGeometry width="50" height="50" relative="1" as="geometry">
            <mxPoint x="1240" y="120" as="sourcePoint" />
            <mxPoint x="1290" y="70" as="targetPoint" />
          </mxGeometry>
        </mxCell>
        <mxCell id="mrYq8TOZVtPHyVSn8t1D-66" value="" style="endArrow=classic;html=1;rounded=0;exitX=1;exitY=0.5;exitDx=0;exitDy=0;entryX=0;entryY=0.5;entryDx=0;entryDy=0;" parent="1" source="mrYq8TOZVtPHyVSn8t1D-1" target="mrYq8TOZVtPHyVSn8t1D-8" edge="1">
          <mxGeometry width="50" height="50" relative="1" as="geometry">
            <mxPoint x="1290" y="30" as="sourcePoint" />
            <mxPoint x="1340" y="-20" as="targetPoint" />
          </mxGeometry>
        </mxCell>
        <mxCell id="dkeCcL5cMMutuweCGN-a-1" value="" style="endArrow=classic;html=1;rounded=0;exitX=1;exitY=0.5;exitDx=0;exitDy=0;entryX=0;entryY=1;entryDx=0;entryDy=0;" edge="1" parent="1" source="7d933b09d9755ecc-15" target="mrYq8TOZVtPHyVSn8t1D-1">
          <mxGeometry width="50" height="50" relative="1" as="geometry">
            <mxPoint x="1070" y="570" as="sourcePoint" />
            <mxPoint x="1120" y="520" as="targetPoint" />
          </mxGeometry>
        </mxCell>
        <mxCell id="dkeCcL5cMMutuweCGN-a-2" value="小松" style="ellipse;whiteSpace=wrap;html=1;rounded=0;shadow=0;comic=0;strokeWidth=1;fontFamily=Verdana;" vertex="1" parent="1">
          <mxGeometry x="1230" y="-150" width="60" height="40" as="geometry" />
        </mxCell>
        <mxCell id="dkeCcL5cMMutuweCGN-a-3" value="女儿" style="ellipse;whiteSpace=wrap;html=1;rounded=0;shadow=0;comic=0;strokeWidth=1;fontFamily=Verdana;" vertex="1" parent="1">
          <mxGeometry x="1230" y="-110" width="60" height="40" as="geometry" />
        </mxCell>
        <mxCell id="dkeCcL5cMMutuweCGN-a-4" value="女儿" style="ellipse;whiteSpace=wrap;html=1;rounded=0;shadow=0;comic=0;strokeWidth=1;fontFamily=Verdana;" vertex="1" parent="1">
          <mxGeometry x="1320" y="-160" width="60" height="40" as="geometry" />
        </mxCell>
        <mxCell id="dkeCcL5cMMutuweCGN-a-5" value="" style="endArrow=classic;html=1;rounded=0;exitX=1;exitY=0.5;exitDx=0;exitDy=0;entryX=0;entryY=0.5;entryDx=0;entryDy=0;" edge="1" parent="1" source="mrYq8TOZVtPHyVSn8t1D-32" target="dkeCcL5cMMutuweCGN-a-2">
          <mxGeometry width="50" height="50" relative="1" as="geometry">
            <mxPoint x="1070" y="-90" as="sourcePoint" />
            <mxPoint x="1120" y="-140" as="targetPoint" />
          </mxGeometry>
        </mxCell>
        <mxCell id="dkeCcL5cMMutuweCGN-a-6" value="" style="endArrow=classic;html=1;rounded=0;exitX=1;exitY=0.5;exitDx=0;exitDy=0;entryX=0;entryY=0.5;entryDx=0;entryDy=0;" edge="1" parent="1" source="dkeCcL5cMMutuweCGN-a-2" target="dkeCcL5cMMutuweCGN-a-4">
          <mxGeometry width="50" height="50" relative="1" as="geometry">
            <mxPoint x="1070" y="-90" as="sourcePoint" />
            <mxPoint x="1120" y="-140" as="targetPoint" />
          </mxGeometry>
        </mxCell>
        <mxCell id="dkeCcL5cMMutuweCGN-a-7" value="" style="endArrow=classic;html=1;rounded=0;exitX=1;exitY=0.5;exitDx=0;exitDy=0;entryX=0;entryY=0.5;entryDx=0;entryDy=0;" edge="1" parent="1" source="mrYq8TOZVtPHyVSn8t1D-32" target="dkeCcL5cMMutuweCGN-a-3">
          <mxGeometry width="50" height="50" relative="1" as="geometry">
            <mxPoint x="1171" y="-105" as="sourcePoint" />
            <mxPoint x="1240" y="-120" as="targetPoint" />
          </mxGeometry>
        </mxCell>
        <mxCell id="dkeCcL5cMMutuweCGN-a-8" value="女儿" style="ellipse;whiteSpace=wrap;html=1;rounded=0;shadow=0;comic=0;strokeWidth=1;fontFamily=Verdana;" vertex="1" parent="1">
          <mxGeometry x="1230" y="-50" width="60" height="40" as="geometry" />
        </mxCell>
        <mxCell id="dkeCcL5cMMutuweCGN-a-9" value="" style="endArrow=classic;html=1;rounded=0;exitX=1;exitY=0.5;exitDx=0;exitDy=0;entryX=0;entryY=0.5;entryDx=0;entryDy=0;" edge="1" parent="1" source="mrYq8TOZVtPHyVSn8t1D-33" target="dkeCcL5cMMutuweCGN-a-8">
          <mxGeometry width="50" height="50" relative="1" as="geometry">
            <mxPoint x="1070" y="-90" as="sourcePoint" />
            <mxPoint x="1120" y="-140" as="targetPoint" />
          </mxGeometry>
        </mxCell>
        <mxCell id="dkeCcL5cMMutuweCGN-a-10" value="女儿" style="ellipse;whiteSpace=wrap;html=1;rounded=0;shadow=0;comic=0;strokeWidth=1;fontFamily=Verdana;" vertex="1" parent="1">
          <mxGeometry x="1230" y="10" width="60" height="40" as="geometry" />
        </mxCell>
        <mxCell id="dkeCcL5cMMutuweCGN-a-11" value="儿子" style="ellipse;whiteSpace=wrap;html=1;rounded=0;shadow=0;comic=0;strokeWidth=1;fontFamily=Verdana;" vertex="1" parent="1">
          <mxGeometry x="1230" y="65" width="60" height="40" as="geometry" />
        </mxCell>
        <mxCell id="dkeCcL5cMMutuweCGN-a-12" value="" style="endArrow=classic;html=1;rounded=0;exitX=1.002;exitY=0.383;exitDx=0;exitDy=0;entryX=0;entryY=0.5;entryDx=0;entryDy=0;exitPerimeter=0;" edge="1" parent="1" source="mrYq8TOZVtPHyVSn8t1D-34" target="dkeCcL5cMMutuweCGN-a-10">
          <mxGeometry width="50" height="50" relative="1" as="geometry">
            <mxPoint x="1171" y="-5" as="sourcePoint" />
            <mxPoint x="1240" y="-20" as="targetPoint" />
          </mxGeometry>
        </mxCell>
        <mxCell id="dkeCcL5cMMutuweCGN-a-13" value="" style="endArrow=classic;html=1;rounded=0;exitX=1;exitY=0.5;exitDx=0;exitDy=0;entryX=0;entryY=0.5;entryDx=0;entryDy=0;" edge="1" parent="1" source="mrYq8TOZVtPHyVSn8t1D-34" target="dkeCcL5cMMutuweCGN-a-11">
          <mxGeometry width="50" height="50" relative="1" as="geometry">
            <mxPoint x="1181" y="5" as="sourcePoint" />
            <mxPoint x="1250" y="-10" as="targetPoint" />
          </mxGeometry>
        </mxCell>
      </root>
    </mxGraphModel>
  </diagram>
</mxfile>
